<?xml version="1.0" encoding="UTF-8"?>
<svg width="116px" height="116px" viewBox="0 0 116 116" version="1.1" xmlns="http://www.w3.org/2000/svg" xmlns:xlink="http://www.w3.org/1999/xlink">
    <!-- Generator: Sketch 57.1 (83088) - https://sketch.com -->
    <title>Group 6</title>
    <desc>Created with Sketch.</desc>
    <g id="Desktop" stroke="none" stroke-width="1" fill="none" fill-rule="evenodd">
        <g transform="translate(-454.000000, -781.000000)" id="Group-6">
            <g transform="translate(454.000000, 781.000000)">
                <circle id="Oval-Copy" fill="#2BBFD7" cx="58" cy="58" r="58"></circle>
                <g id="tyrannosaurus" transform="translate(21.000000, 21.000000)" fill="#FFFFFF" fill-rule="nonzero">
                    <path d="M60.0226412,4.50590984 L58.6421106,4.22363261 C58.0447811,4.10144252 57.453292,4.46508692 57.3248027,5.03702572 C57.1966053,5.60868586 57.5779851,6.17142905 58.1773588,6.29403713 L59.5578894,6.57631435 C59.6361511,6.59247632 59.7144128,6.6 59.7915064,6.6 C60.3032737,6.6 60.7634992,6.25990192 60.8751973,5.76292124 C61.0033947,5.19112177 60.6220149,4.62837858 60.0226412,4.50590984 Z" id="Path"></path>
                    <path d="M50.4593805,45.3307943 C50.0827648,44.8624636 49.3970575,44.7880867 48.9282591,45.1649869 C48.0243527,45.8919887 47.063531,46.5143756 46.0582666,47.0341539 C46.0151142,47.0535005 45.9736822,47.0757133 45.9338272,47.1002189 C43.5871112,48.2885294 40.9969642,48.9064737 38.2938467,48.9064737 L34.8754891,48.9064737 L34.8754891,44.5511985 C34.8754891,43.9498778 34.3879101,43.4623438 33.7862138,43.4623438 C33.1845175,43.4623438 32.6969385,43.9498778 32.6969385,44.5511985 L32.6969385,53.0442074 C32.6969385,57.607136 28.9833956,61.3195314 24.4184173,61.3195314 C23.816721,61.3195314 23.329142,61.8070654 23.329142,62.408386 L23.329142,69.086255 C23.329142,69.6875757 23.816721,70.1751097 24.4184173,70.1751097 L25.6675428,70.1751097 C26.5056454,70.1751097 27.2375157,70.6382813 27.6202961,71.3220041 L22.713396,71.3220041 C21.3712276,71.3220041 20.2792284,70.2304266 20.2792284,68.8887765 L20.2792284,60.7205037 C20.2792284,59.800036 20.7190674,58.920841 21.4556687,58.3686751 L25.0720112,55.6574299 C25.358738,55.4426111 25.5213121,55.1006781 25.5068324,54.7426945 C25.4924961,54.3849976 25.3032564,54.0569654 25.0003294,53.8656492 L22.538636,52.3107567 C20.401374,50.9607948 19.092896,48.6462263 19.0384179,46.1197052 C18.9839398,43.5931841 20.19149,41.2244451 22.2686827,39.7837692 C22.7629998,39.4409763 22.8857189,38.762556 22.5427935,38.2682864 C22.2000116,37.7741603 21.5214725,37.6514886 21.0267253,37.9944247 C18.3476929,39.8527004 16.7900492,42.9077416 16.8602973,46.1665669 C16.8941311,47.7363634 17.3041505,49.2419579 18.0271323,50.576156 C17.0988541,55.1322058 15.0579323,59.4290114 12.104359,63.0236075 C9.89742233,65.7094872 7.20720759,67.9737546 4.19786587,69.6961741 C6.7802713,65.5403837 8.1409336,60.7809797 8.1409336,55.8752581 C8.1409336,54.7479969 8.19684534,53.6101309 8.30723518,52.4931879 C8.36630091,51.8947334 7.92889909,51.3616274 7.33007005,51.3025845 C6.7316711,51.2428251 6.19807242,51.6807745 6.13900669,52.279229 C6.02159204,53.4668229 5.96223958,54.6767728 5.96223958,55.8752581 C5.96223958,60.6435472 4.56014525,65.2610763 1.90792182,69.2282733 L0.18383323,71.8056688 C-0.0818192029,72.2027754 -0.0575907835,72.7265664 0.243759143,73.0974477 C0.455076837,73.3578384 0.768182565,73.5 1.08946001,73.5 C1.22579863,73.5 1.36400097,73.4742045 1.49618206,73.4210373 C6.27061432,71.4987029 10.5210532,68.3816093 13.787589,64.4061004 C16.5668324,61.0238868 18.594278,57.0635686 19.7287128,52.8448659 C20.2227432,53.3329731 20.772972,53.7722123 21.3743816,54.1519787 L22.500358,54.8630733 L20.1483376,56.626479 C18.8659517,57.5879328 18.100391,59.1183195 18.100391,60.720647 L18.100391,68.8889198 C18.100391,71.4314914 20.1696987,73.5 22.7132527,73.5 L28.9931443,73.5 C29.5948406,73.5 30.0824196,73.012466 30.0824196,72.4111454 C30.0824196,69.9774879 28.1017105,67.9975437 25.6672561,67.9975437 L25.5075492,67.9975437 L25.5075492,63.4410639 C27.4937062,63.234557 29.3159987,62.4694352 30.8151501,61.3070636 L30.8151501,68.8886332 C30.8151501,71.4312048 32.8846012,73.5 35.4282985,73.5 L41.7084769,73.5 C42.3101732,73.5 42.7977522,73.0123227 42.7977522,72.411002 C42.7977522,69.9773446 40.8170431,67.9972571 38.3824453,67.9972571 L38.2225951,67.9972571 L38.2225951,63.4414938 C43.4788718,62.8952035 47.5908217,58.4406157 47.5908217,53.0443507 L47.5908217,48.6764643 C48.5387407,48.1515269 49.4436506,47.5453338 50.293509,46.8617543 C50.7623075,46.4848541 50.8364263,45.7992684 50.4593805,45.3307943 Z M45.4124144,53.0443507 C45.4124144,57.607566 41.6985848,61.3201046 37.1334631,61.3201046 C36.5317668,61.3201046 36.0441878,61.8076386 36.0441878,62.4089592 L36.0441878,69.0861117 C36.0441878,69.6874323 36.5317668,70.1749664 37.1334631,70.1749664 L38.382732,70.1749664 C39.220978,70.1749664 39.9528483,70.638138 40.3356287,71.3220041 L35.4284419,71.3220041 C34.0861301,71.3220041 32.9939875,70.2302833 32.9939875,68.8886332 L32.9939875,59.017574 C34.1787429,57.3230995 34.8754891,55.2639059 34.8754891,53.0442074 L34.8754891,51.084183 L38.2938467,51.084183 C40.7419206,51.084183 43.1614652,50.60969 45.4124144,49.7101453 L45.4124144,53.0443507 L45.4124144,53.0443507 Z" id="Shape"></path>
                    <path d="M73.5,10.6757609 L73.5,6.5355949 C73.5,6.06514104 73.1970505,5.6477405 72.7485242,5.50062509 L57.5682535,0.523220399 C57.0370131,0.349865106 56.4912437,0.217948755 55.9463375,0.131342802 C55.3991296,0.0441633003 54.8396945,0 54.2829925,0 C49.3866043,0 45.1785414,3.31654914 44.0496015,8.0655378 L41.3053628,19.6196896 C31.9368019,19.8370648 23.1622003,23.5758896 16.5132797,30.2036826 C11.4658483,35.2347141 8.04565542,41.5586693 6.62239715,48.4918773 C6.50141876,49.0813427 6.88262297,49.6570428 7.47413681,49.7776316 C7.5482199,49.7926872 7.62187143,49.8 7.694516,49.8 C8.20288418,49.8 8.65831531,49.4445428 8.76418939,48.9286351 C10.101425,42.4149785 13.3156238,36.4727204 18.0593864,31.7442361 C18.4359874,31.3688481 18.8206441,31.0042141 19.2113424,30.6487569 L20.2687885,31.5138127 C20.4720494,31.680142 20.7174586,31.7611559 20.9615732,31.7611559 C21.2773253,31.7611559 21.5909198,31.6252247 21.8071273,31.3628258 C22.1899138,30.8976773 22.1221602,30.2111387 21.6555087,29.829585 L20.8994297,29.211012 C21.9322773,28.3861047 23.0059785,27.6251481 24.1162178,26.9317269 L24.7869934,28.0391073 C24.9922682,28.378075 25.3534772,28.5656256 25.7236049,28.5656256 C25.9159332,28.5656256 26.1109947,28.5148665 26.2876433,28.4086165 C26.8044986,28.0976093 26.9703584,27.4278471 26.6582025,26.9127998 L26.0051206,25.8348138 C27.0811234,25.2558157 28.1864718,24.7368969 29.316994,24.2787744 L29.8378772,25.7953822 C29.9932359,26.2477693 30.4175953,26.5323932 30.8718756,26.5323932 C30.9894016,26.5323932 31.1087976,26.5133226 31.2261797,26.473461 C31.7972668,26.2784542 32.1017986,25.6590209 31.9061617,25.0897731 L31.3680165,23.5229797 C32.7095676,23.0780488 34.0811835,22.7155656 35.477254,22.4401185 L36.2577876,24.7512356 C36.4115639,25.2062037 36.8372179,25.4934085 37.2935122,25.4934085 C37.4091681,25.4934085 37.5268379,25.4749115 37.6424938,25.436197 C38.214444,25.2442013 38.5221405,24.6263453 38.3296684,24.0559504 L37.6636399,22.0839444 C38.9761332,21.9121663 40.3063201,21.8155233 41.649022,21.795449 L44.0881535,24.8625042 C44.3037856,25.1339364 44.6229902,25.275173 44.9453595,25.275173 C45.1831446,25.275173 45.4226559,25.198174 45.6236153,25.0394442 C46.09674,24.6656334 46.1761456,23.9802419 45.801127,23.5089277 L43.3579676,20.436854 L46.1768649,8.56825381 C47.0710405,4.80620021 50.4043476,2.17905739 54.2829925,2.17905739 C54.7244701,2.17905739 55.1681055,2.2140439 55.6015275,2.28301321 C56.0333671,2.35169574 56.4663576,2.45651189 56.886833,2.59373357 L71.3139018,7.32422526 L71.3139018,9.58616053 L60.3835544,9.58616053 C60.3818282,9.58616053 60.380102,9.58659069 60.3783758,9.58659069 L56.6103521,9.58659069 C56.0066109,9.58659069 55.5173749,10.0743944 55.5173749,10.6760477 C55.5173749,11.277701 56.0066109,11.7655047 56.6103521,11.7655047 L59.9114366,11.7655047 L63.101037,15.1478686 C63.3077503,15.3669645 63.596027,15.4911379 63.897538,15.4911379 L70.5641522,15.4911379 L69.4084561,18.0580581 L53.5428809,18.0580581 L53.4088121,17.8319362 C51.1988347,14.0921076 50.6911858,9.57382922 52.0160502,5.43581401 C52.1997475,4.86255143 51.8822691,4.24957056 51.3071542,4.06660831 C50.7318955,3.88393284 50.116934,4.19995854 49.9335244,4.77336451 C48.4194964,9.50170539 48.9997899,14.6643665 51.5258072,18.9390299 L51.9777859,19.7017071 C52.1745736,20.0335054 52.5323301,20.2371154 52.9190007,20.2371154 L55.4934957,20.2371154 L55.3601461,32.0165287 C55.3172786,35.8515665 54.0249244,39.4567543 51.6226187,42.4420787 C51.2448669,42.9113855 51.3205323,43.5970637 51.7913555,43.9735989 C52.2620348,44.350134 52.9500724,44.2747123 53.3278242,43.8054055 C55.8127002,40.7175592 57.2414248,37.0419681 57.5009314,33.1187472 L60.0275241,33.1187472 L60.0275241,34.4260095 C60.0275241,35.0276628 60.5167601,35.5154665 61.1205013,35.5154665 C61.7242424,35.5154665 62.2134785,35.0276628 62.2134785,34.4260095 L62.2134785,32.0292902 C62.2134785,31.4276369 61.7242424,30.9398332 61.1205013,30.9398332 L57.5584716,30.9398332 L57.6795939,20.2372588 L70.1159136,20.2372588 C70.5464586,20.2372588 70.9368692,19.9853273 71.1132301,19.5938798 L73.2496999,14.8479023 C73.4014623,14.5107987 73.3713975,14.1199248 73.1700066,13.809778 C72.9686157,13.4996312 72.6232303,13.3123673 72.2523834,13.3123673 L64.3699435,13.3123673 L62.9110103,11.7652179 L72.406879,11.7652179 C73.0106201,11.7652179 73.5,11.2774142 73.5,10.6757609 Z" id="Path"></path>
                    <path d="M52.287413,31.0500095 L49.8604034,31.0500095 L52.059652,28.1782994 C52.4321254,27.6919097 52.3377987,26.9971506 51.848735,26.6266026 C51.3598178,26.255909 50.6613019,26.3498938 50.2889749,26.8362835 L46.7277008,31.4861283 C46.4712317,31.8209765 46.4278765,32.2713752 46.6156512,32.6484802 C46.8035723,33.0257309 47.1899605,33.2642629 47.6129661,33.2642629 L51.1742402,33.2642629 L51.1742402,34.5927276 C51.1742402,35.2042847 51.672385,35.7 52.28712,35.7 C52.9018551,35.7 53.4,35.2042847 53.4,34.5928733 L53.4,32.1572819 C53.4002928,31.5457249 52.902148,31.0500095 52.287413,31.0500095 Z" id="Path"></path>
                </g>
            </g>
        </g>
    </g>
</svg>