<?xml version="1.0" encoding="UTF-8"?>
<svg width="130px" height="26px" viewBox="0 0 130 26" version="1.1" xmlns="http://www.w3.org/2000/svg" xmlns:xlink="http://www.w3.org/1999/xlink">
    <!-- Generator: Sketch 57.1 (83088) - https://sketch.com -->
    <title>Group 32</title>
    <desc>Created with Sketch.</desc>
    <defs>
        <polygon id="path-1" points="0 25.884712 129.06992 25.884712 129.06992 -0.000168 0 -0.000168"></polygon>
    </defs>
    <g id="Desktop" stroke="none" stroke-width="1" fill="none" fill-rule="evenodd">
        <g transform="translate(-53.000000, -34.000000)" id="Group-32">
            <g transform="translate(53.000000, 34.000000)">
                <path d="M7.333592,8.595272 C8.921752,8.595272 9.716392,7.488712 9.716392,5.276152 C9.716392,3.120712 8.964312,2.042712 7.461272,2.042712 L3.439912,2.042712 L3.439912,8.595272 L7.333592,8.595272 Z M1.291192,0.127512 L7.652232,0.127512 C8.858472,0.127512 9.861992,0.482552 10.662792,1.191512 C11.464152,1.901032 11.865672,3.255112 11.865672,5.254872 C11.865672,7.269752 11.453512,8.649032 10.631432,9.393272 C9.808792,10.138072 8.808632,10.510472 7.631512,10.510472 C7.191352,10.510472 6.528872,10.481912 5.641832,10.425352 C4.755352,10.368792 4.021752,10.311672 3.439912,10.255112 L3.439912,15.808072 L1.291192,15.808072 L1.291192,0.127512 Z" id="Fill-1" fill="#FEFEFE"></path>
                <path d="M26.715416,13.574008 C27.282696,13.276088 27.694296,12.701528 27.949656,11.850888 C28.204456,10.999688 28.332696,9.722888 28.332696,8.021048 C28.332696,6.248088 28.204456,4.928728 27.949656,4.064088 C27.694296,3.198888 27.286616,2.624328 26.726616,2.339848 C26.166056,2.057048 25.353496,1.914808 24.290056,1.914808 C23.269176,1.914808 22.477896,2.060408 21.917896,2.351048 C21.357336,2.642248 20.939576,3.220168 20.662376,4.085368 C20.385736,4.950568 20.247416,6.262088 20.247416,8.021048 C20.247416,9.736888 20.371736,11.017608 20.619816,11.860968 C20.867896,12.705448 21.272216,13.276088 21.832776,13.574008 C22.392776,13.871928 23.212056,14.020888 24.290056,14.020888 C25.339496,14.020888 26.147576,13.871928 26.715416,13.574008 M20.758136,15.339688 C19.892936,14.942648 19.237176,14.177128 18.790296,13.042008 C18.343416,11.907448 18.119976,10.233608 18.119976,8.021048 C18.119976,5.808488 18.346776,4.124008 18.800936,2.968168 C19.254536,1.812328 19.913656,1.028888 20.779416,0.616728 C21.644616,0.205688 22.814456,0.000168 24.290056,0.000168 C25.793656,0.000168 26.978056,0.205688 27.843256,0.616728 C28.708456,1.028888 29.364216,1.812328 29.811096,2.968168 C30.257976,4.124008 30.481416,5.808488 30.481416,8.021048 C30.481416,10.233608 30.257976,11.907448 29.811096,13.042008 C29.364216,14.177128 28.708456,14.942648 27.843256,15.339688 C26.978056,15.737288 25.793656,15.935528 24.290056,15.935528 C22.801016,15.935528 21.623336,15.737288 20.758136,15.339688" id="Fill-3" fill="#FEFEFE"></path>
                <path d="M39.448808,15.818376 C38.491768,15.740536 37.736328,15.638056 37.183048,15.509816 L37.183048,13.850536 C38.360728,13.964216 39.927608,14.020776 41.885368,14.020776 C42.891688,14.020776 43.672328,13.869016 44.225608,13.563816 C44.778888,13.258616 45.055528,12.701976 45.055528,11.893336 L45.055528,10.978296 C45.055528,9.659496 44.353288,8.999816 42.948808,8.999816 L41.352808,8.999816 C39.949448,8.999816 38.885448,8.690696 38.161928,8.074136 C37.438408,7.457016 37.077208,6.446776 37.077208,5.042296 L37.077208,4.169816 C37.077208,2.723336 37.470328,1.666616 38.257688,1.000216 C39.044488,0.333816 40.218248,5.6e-05 41.778968,5.6e-05 C42.459368,5.6e-05 43.240008,0.049896 44.119208,0.149016 C44.998408,0.248136 45.749928,0.355096 46.374328,0.468216 L46.374328,2.127496 L45.927448,2.106776 C44.111928,1.978536 42.807128,1.914696 42.012488,1.914696 C41.047608,1.914696 40.324648,2.085496 39.842488,2.425416 C39.360328,2.765896 39.118968,3.383016 39.118968,4.276776 L39.118968,4.914616 C39.118968,5.652696 39.314408,6.177416 39.704168,6.489336 C40.093928,6.801256 40.679128,6.957496 41.459768,6.957496 L43.182888,6.957496 C44.459128,6.957496 45.431288,7.301336 46.097688,7.989576 C46.764088,8.677256 47.097848,9.588376 47.097848,10.722936 L47.097848,11.829496 C47.097848,13.375656 46.650968,14.446376 45.757768,15.041656 C44.864008,15.638056 43.601208,15.935416 41.970488,15.935416 C41.246968,15.935416 40.406408,15.896776 39.448808,15.818376" id="Fill-5" fill="#FEFEFE"></path>
                <polygon id="Fill-7" fill="#FEFEFE" points="57.543808 2.0426 52.863328 2.0426 52.863328 0.1274 64.373568 0.1274 64.373568 2.0426 59.693088 2.0426 59.693088 15.80796 57.543808 15.80796"></polygon>
                <path d="M78.628592,13.574008 C79.195872,13.276088 79.607472,12.701528 79.862832,11.850888 C80.117632,10.999688 80.245872,9.722888 80.245872,8.021048 C80.245872,6.248088 80.117632,4.928728 79.862832,4.064088 C79.607472,3.198888 79.199792,2.624328 78.639792,2.339848 C78.079232,2.057048 77.266672,1.914808 76.203232,1.914808 C75.182352,1.914808 74.391072,2.060408 73.831072,2.351048 C73.270512,2.642248 72.852752,3.220168 72.575552,4.085368 C72.298912,4.950568 72.160592,6.262088 72.160592,8.021048 C72.160592,9.736888 72.284912,11.017608 72.532992,11.860968 C72.781072,12.705448 73.185392,13.276088 73.745952,13.574008 C74.305952,13.871928 75.125232,14.020888 76.203232,14.020888 C77.252672,14.020888 78.060752,13.871928 78.628592,13.574008 M72.671312,15.339688 C71.806112,14.942648 71.150352,14.177128 70.703472,13.042008 C70.256592,11.907448 70.033152,10.233608 70.033152,8.021048 C70.033152,5.808488 70.259952,4.124008 70.714112,2.968168 C71.167712,1.812328 71.826832,1.028888 72.692592,0.616728 C73.557792,0.205688 74.727632,0.000168 76.203232,0.000168 C77.706832,0.000168 78.891232,0.205688 79.756432,0.616728 C80.621632,1.028888 81.277392,1.812328 81.724272,2.968168 C82.171152,4.124008 82.394592,5.808488 82.394592,8.021048 C82.394592,10.233608 82.171152,11.907448 81.724272,13.042008 C81.277392,14.177128 80.621632,14.942648 79.756432,15.339688 C78.891232,15.737288 77.706832,15.935528 76.203232,15.935528 C74.714192,15.935528 73.536512,15.737288 72.671312,15.339688" id="Fill-9" fill="#FEFEFE"></path>
                <path d="M95.393592,8.595272 C96.981752,8.595272 97.776392,7.488712 97.776392,5.276152 C97.776392,3.120712 97.024312,2.042712 95.521272,2.042712 L91.499912,2.042712 L91.499912,8.595272 L95.393592,8.595272 Z M89.351192,0.127512 L95.712232,0.127512 C96.918472,0.127512 97.921992,0.482552 98.722792,1.191512 C99.524152,1.901032 99.925672,3.255112 99.925672,5.254872 C99.925672,7.269752 99.513512,8.649032 98.691432,9.393272 C97.868792,10.138072 96.868632,10.510472 95.691512,10.510472 C95.251352,10.510472 94.588872,10.481912 93.701832,10.425352 C92.815352,10.368792 92.081752,10.311672 91.499912,10.255112 L91.499912,15.808072 L89.351192,15.808072 L89.351192,0.127512 Z" id="Fill-11" fill="#FEFEFE"></path>
                <mask id="mask-2" fill="white">
                    <use xlink:href="#path-1"></use>
                </mask>
                <g id="Clip-14"></g>
                <polygon id="Fill-13" fill="#FEFEFE" mask="url(#mask-2)" points="106.56296 15.808072 108.71168 15.808072 108.71168 0.127512 106.56296 0.127512"></polygon>
                <path d="M124.17944,9.76556 L121.71152,1.97876 L119.22176,9.76556 L124.17944,9.76556 Z M120.37088,0.1274 L123.09416,0.1274 L128.32792,15.80796 L126.09408,15.80796 L124.71088,11.70148 L118.71104,11.70148 L117.34968,15.80796 L115.13712,15.80796 L120.37088,0.1274 Z" id="Fill-15" fill="#FEFEFE" mask="url(#mask-2)"></path>
                <polygon id="Fill-16" fill="#FEFEFE" mask="url(#mask-2)" points="0 20.925632 0.40992 20.925632 1.55232 25.353552 2.86272 20.925632 3.27936 20.925632 4.5836 25.353552 5.73216 20.925632 6.13536 20.925632 4.83896 25.858112 4.39544 25.858112 3.07104 21.443072 1.74048 25.858112 1.29696 25.858112"></polygon>
                <path d="M10.711624,25.70316 C10.523464,25.5822 10.429384,25.33636 10.429384,24.96452 L10.429384,21.87276 C10.429384,21.54124 10.516744,21.301 10.692024,21.15036 C10.866184,21.00084 11.081224,20.9258 11.336584,20.9258 C11.574024,20.9258 12.100424,20.93644 12.916344,20.95884 L13.392904,20.979 L13.392904,21.2814 L11.437944,21.2814 C11.240264,21.2814 11.088504,21.33404 10.980424,21.43988 C10.872904,21.5446 10.819144,21.70476 10.819144,21.9198 L10.819144,23.2302 L13.110664,23.26436 L13.110664,23.55276 L10.819144,23.58692 L10.819144,24.8906 C10.819144,25.14092 10.880184,25.30948 11.001144,25.39404 C11.121544,25.47972 11.283384,25.52228 11.484984,25.52228 L13.392904,25.52228 L13.392904,25.82468 C12.801544,25.85156 12.147464,25.87172 11.430664,25.8846 C11.140024,25.8846 10.899784,25.82468 10.711624,25.70316" id="Fill-17" fill="#FEFEFE" mask="url(#mask-2)"></path>
                <path d="M25.388104,25.508448 C25.800264,25.508448 26.108264,25.320288 26.312104,24.943968 C26.515944,24.567648 26.617864,24.050208 26.617864,23.391648 C26.617864,22.880928 26.576424,22.471008 26.493544,22.161888 C26.410664,21.852768 26.279624,21.627648 26.099864,21.486528 C25.921224,21.345408 25.683784,21.274848 25.388104,21.274848 L23.896264,21.274848 L23.896264,25.508448 L25.388104,25.508448 Z M23.506504,20.925408 L25.414984,20.925408 C25.979464,20.925408 26.386024,21.128128 26.634664,21.533568 C26.883304,21.939008 27.007624,22.558368 27.007624,23.391648 C27.007624,24.162208 26.872104,24.765888 26.601064,25.202688 C26.330024,25.639488 25.934664,25.857888 25.414984,25.857888 L23.506504,25.857888 L23.506504,20.925408 Z" id="Fill-18" fill="#FEFEFE" mask="url(#mask-2)"></path>
                <path d="M31.92,25.70316 C31.73184,25.5822 31.63776,25.33636 31.63776,24.96452 L31.63776,21.87276 C31.63776,21.54124 31.72512,21.301 31.9004,21.15036 C32.07456,21.00084 32.2896,20.9258 32.54496,20.9258 C32.7824,20.9258 33.3088,20.93644 34.12472,20.95884 L34.60128,20.979 L34.60128,21.2814 L32.64632,21.2814 C32.44864,21.2814 32.29688,21.33404 32.1888,21.43988 C32.08128,21.5446 32.02752,21.70476 32.02752,21.9198 L32.02752,23.2302 L34.31904,23.26436 L34.31904,23.55276 L32.02752,23.58692 L32.02752,24.8906 C32.02752,25.14092 32.08856,25.30948 32.20952,25.39404 C32.32992,25.47972 32.49176,25.52228 32.69336,25.52228 L34.60128,25.52228 L34.60128,25.82468 C34.00992,25.85156 33.35584,25.87172 32.63904,25.8846 C32.3484,25.8846 32.10816,25.82468 31.92,25.70316" id="Fill-19" fill="#FEFEFE" mask="url(#mask-2)"></path>
                <path d="M39.469584,25.646264 C39.301584,25.505144 39.217584,25.264344 39.217584,24.923864 L39.217584,20.925464 L39.607344,20.925464 L39.607344,24.876824 C39.607344,25.114264 39.664464,25.276664 39.778704,25.364024 C39.892944,25.451384 40.041904,25.494504 40.226144,25.494504 L42.053424,25.494504 L42.053424,25.857944 L40.158384,25.857944 C39.867184,25.857944 39.637584,25.787384 39.469584,25.646264" id="Fill-20" fill="#FEFEFE" mask="url(#mask-2)"></path>
                <polygon id="Fill-21" fill="#FEFEFE" mask="url(#mask-2)" points="46.44192 25.858392 46.83168 25.858392 46.83168 20.925912 46.44192 20.925912"></polygon>
                <polygon id="Fill-22" fill="#FEFEFE" mask="url(#mask-2)" points="51.300144 20.925632 51.710064 20.925632 53.295984 25.461632 54.881904 20.925632 55.285104 20.925632 53.544624 25.858112 53.040624 25.858112"></polygon>
                <path d="M59.86148,25.70316 C59.67332,25.5822 59.57924,25.33636 59.57924,24.96452 L59.57924,21.87276 C59.57924,21.54124 59.6666,21.301 59.84188,21.15036 C60.01604,21.00084 60.23108,20.9258 60.48644,20.9258 C60.72388,20.9258 61.25028,20.93644 62.0662,20.95884 L62.54276,20.979 L62.54276,21.2814 L60.5878,21.2814 C60.39012,21.2814 60.23836,21.33404 60.13028,21.43988 C60.02276,21.5446 59.969,21.70476 59.969,21.9198 L59.969,23.2302 L62.26052,23.26436 L62.26052,23.55276 L59.969,23.58692 L59.969,24.8906 C59.969,25.14092 60.03004,25.30948 60.151,25.39404 C60.2714,25.47972 60.43324,25.52228 60.63484,25.52228 L62.54276,25.52228 L62.54276,25.82468 C61.9514,25.85156 61.29732,25.87172 60.58052,25.8846 C60.28988,25.8846 60.04964,25.82468 59.86148,25.70316" id="Fill-23" fill="#FEFEFE" mask="url(#mask-2)"></path>
                <path d="M69.027672,23.45224 C69.309912,23.45224 69.530552,23.37496 69.690152,23.2204 C69.848632,23.06584 69.928152,22.77128 69.928152,22.33672 C69.928152,21.924 69.848072,21.644 69.686792,21.49672 C69.525512,21.34888 69.305432,21.27496 69.027672,21.27496 L67.549272,21.27496 L67.549272,23.45224 L69.027672,23.45224 Z M67.159512,20.92552 L69.074712,20.92552 C69.442072,20.92552 69.741112,21.02296 69.972392,21.21784 C70.203112,21.41216 70.318472,21.78512 70.318472,22.33672 C70.318472,22.834 70.223272,23.1812 70.032312,23.37832 C69.841912,23.57544 69.607832,23.69416 69.330072,23.73448 L70.365512,25.858 L69.975192,25.858 L68.961032,23.7748 C68.530392,23.7748 68.059992,23.76584 67.549272,23.74792 L67.549272,25.858 L67.159512,25.858 L67.159512,20.92552 Z" id="Fill-24" fill="#FEFEFE" mask="url(#mask-2)"></path>
                <path d="M82.991552,23.97612 L82.064192,21.27524 L81.123392,23.97612 L82.991552,23.97612 Z M81.815552,20.9258 L82.319552,20.9258 L84.060032,25.85772 L83.650112,25.85772 L83.105792,24.32556 L81.022592,24.32556 L80.484992,25.85772 L80.075072,25.85772 L81.815552,20.9258 Z" id="Fill-25" fill="#FEFEFE" mask="url(#mask-2)"></path>
                <polygon id="Fill-26" fill="#FEFEFE" mask="url(#mask-2)" points="88.629856 20.925632 88.959136 20.925632 91.687456 25.179392 91.687456 20.925632 92.077216 20.925632 92.077216 25.858112 91.754656 25.858112 89.019616 21.604352 89.019616 25.858112 88.629856 25.858112"></polygon>
                <polygon id="Fill-27" fill="#FEFEFE" mask="url(#mask-2)" points="98.044296 24.177888 96.451656 20.925408 96.861576 20.925408 98.245896 23.788128 99.630216 20.925408 100.033416 20.925408 98.434056 24.177888 98.434056 25.857888 98.044296 25.857888"></polygon>
                <polygon id="Fill-28" fill="#FEFEFE" mask="url(#mask-2)" points="105.651336 21.275128 104.072696 21.275128 104.072696 20.925688 107.620856 20.925688 107.620856 21.275128 106.041096 21.275128 106.041096 25.858168 105.651336 25.858168"></polygon>
                <polygon id="Fill-29" fill="#FEFEFE" mask="url(#mask-2)" points="111.92776 25.858392 112.31752 25.858392 112.31752 20.925912 111.92776 20.925912"></polygon>
                <polygon id="Fill-30" fill="#FEFEFE" mask="url(#mask-2)" points="121.248176 25.857888 120.744736 21.503328 119.461216 25.857888 119.097776 25.857888 117.794096 21.530208 117.310816 25.857888 116.934496 25.857888 117.491696 20.925408 117.915616 20.925408 119.279216 25.340448 120.623776 20.925408 121.053296 20.925408 121.625056 25.857888"></polygon>
                <path d="M126.388808,25.70316 C126.200648,25.5822 126.106568,25.33636 126.106568,24.96452 L126.106568,21.87276 C126.106568,21.54124 126.193928,21.301 126.369208,21.15036 C126.543368,21.00084 126.758408,20.9258 127.013768,20.9258 C127.251208,20.9258 127.777608,20.93644 128.593528,20.95884 L129.070088,20.979 L129.070088,21.2814 L127.115128,21.2814 C126.917448,21.2814 126.765688,21.33404 126.657608,21.43988 C126.550088,21.5446 126.496328,21.70476 126.496328,21.9198 L126.496328,23.2302 L128.787848,23.26436 L128.787848,23.55276 L126.496328,23.58692 L126.496328,24.8906 C126.496328,25.14092 126.557368,25.30948 126.678328,25.39404 C126.798728,25.47972 126.960568,25.52228 127.162168,25.52228 L129.070088,25.52228 L129.070088,25.82468 C128.478728,25.85156 127.824648,25.87172 127.107848,25.8846 C126.817208,25.8846 126.576968,25.82468 126.388808,25.70316" id="Fill-31" fill="#FEFEFE" mask="url(#mask-2)"></path>
            </g>
        </g>
    </g>
</svg>