<?xml version="1.0" encoding="UTF-8"?>
<svg width="116px" height="116px" viewBox="0 0 116 116" version="1.1" xmlns="http://www.w3.org/2000/svg" xmlns:xlink="http://www.w3.org/1999/xlink">
    <!-- Generator: Sketch 57.1 (83088) - https://sketch.com -->
    <title>Group 3</title>
    <desc>Created with Sketch.</desc>
    <g id="Desktop" stroke="none" stroke-width="1" fill="none" fill-rule="evenodd">
        <g transform="translate(-138.000000, -781.000000)" id="Group-3">
            <g transform="translate(138.000000, 781.000000)">
                <circle id="Oval" fill="#2BBFD7" cx="58" cy="58" r="58"></circle>
                <g id="delivery" transform="translate(16.000000, 24.000000)" fill="#FFFFFF" fill-rule="nonzero">
                    <path d="M83.2419987,16.2537608 L53.9646552,0.209527908 C53.4546687,-0.0698426359 52.8363019,-0.0698426359 52.3263155,0.209527908 L41.3167256,6.24287082 C41.0680492,6.31188398 40.8359954,6.43862935 40.6391819,6.61381661 L23.0489719,16.2537608 C22.5044101,16.5523754 22.1659706,17.1230611 22.1659706,17.7428523 L22.1659706,21.2160725 L2.52717114,21.2160725 C1.58698746,21.2160725 0.825,21.9772081 0.825,22.914858 C0.825,23.8531715 1.58698746,24.6136435 2.52717114,24.6136435 L22.1659706,24.6136435 L22.1659706,30.7292713 L12.4070778,30.7292713 C11.4668941,30.7292713 10.7049067,31.4904069 10.7049067,32.4280569 C10.7049067,33.3663703 11.4668941,34.1268424 12.4070778,34.1268424 L22.1659706,34.1268424 L22.1659706,42.960527 L7.86773308,42.960527 C6.9275494,42.960527 6.16556194,43.7216626 6.16556194,44.6593125 C6.16556194,45.597626 6.9275494,46.358098 7.86773308,46.358098 L22.1659706,46.358098 L22.1659706,49.8319817 C22.1659706,50.4517729 22.5044101,51.0224587 23.0489719,51.3210734 L52.3263155,67.3653062 C52.5816411,67.5053233 52.8635632,67.575 53.1454853,67.575 C53.4274074,67.575 53.7093295,67.5053233 53.9646552,67.3653062 L83.2419987,51.3210734 C83.7865605,51.0224587 84.125,50.4517729 84.125,49.8319817 L84.125,42.2246079 C84.125,41.2869578 83.3630125,40.5258224 82.4228289,40.5258224 C81.4826452,40.5258224 80.7206577,41.2869578 80.7206577,42.2246079 L80.7206577,48.8266457 L54.8476564,63.0055325 L54.8476564,34.7924213 L63.0759252,30.2833401 L63.0759252,37.4394741 C63.0759252,38.040685 63.3937524,38.5967717 63.9117178,38.9020223 C64.1783469,39.0592926 64.4782216,39.1382596 64.7780963,39.1382596 C65.0600184,39.1382596 65.3426054,39.0685829 65.5985959,38.9279022 L71.8726923,35.4818893 C72.4159244,35.1832746 72.7536988,34.6132524 72.7536988,33.9934612 L72.7536988,24.9799441 L80.7206577,20.614198 L80.7206577,28.6343238 C80.7206577,29.5726373 81.4826452,30.3331093 82.4228289,30.3331093 C83.3630125,30.3331093 84.125,29.5726373 84.125,28.6343238 L84.125,17.7428523 C84.125,17.1230611 83.7865605,16.5523754 83.2419987,16.2537608 L83.2419987,16.2537608 Z M51.4433142,63.0055325 L25.5703129,48.8266457 L25.5703129,20.614198 L51.4433142,34.7924213 L51.4433142,63.0055325 Z M53.1454853,31.849408 L27.4048013,17.7428523 L35.4947686,13.3094204 L61.2361175,27.4159761 L53.1454853,31.849408 Z M64.772777,25.4776351 L39.031428,11.3710796 L41.8220577,9.84217262 L67.5627419,23.9487282 L64.772777,25.4776351 Z M69.3493566,32.9894523 L66.4802674,34.565474 L66.4802674,28.417994 L69.3493566,26.8452903 L69.3493566,32.9894523 Z M71.0994013,22.0103874 L45.3587172,7.90383185 L53.1454853,3.63696035 L78.8861693,17.7428523 L71.0994013,22.0103874 Z" id="Shape"></path>
                </g>
            </g>
        </g>
    </g>
</svg>