<?xml version="1.0" encoding="UTF-8"?>
<svg width="108px" height="19px" viewBox="0 0 108 19" version="1.1" xmlns="http://www.w3.org/2000/svg" xmlns:xlink="http://www.w3.org/1999/xlink">
    <!-- Generator: Sketch 57.1 (83088) - https://sketch.com -->
    <title>Group 5</title>
    <desc>Created with Sketch.</desc>
    <g id="Desktop" stroke="none" stroke-width="1" fill="none" fill-rule="evenodd">
        <g transform="translate(-150.000000, -622.000000)" id="Group-5">
            <g transform="translate(150.000000, 619.000000)">
                <g id="Group-2" transform="translate(0.000000, 3.000000)" fill-rule="nonzero">
                    <g id="star" transform="translate(0.000254, 0.593200)" fill="#F7AD3E">
                        <path d="M9.1809,0.6822 L11.4111,5.9607 L17.1207,6.4512 C17.5167,6.4854 17.6778,6.9795 17.3772,7.2396 L13.0464,10.9917 L14.3442,16.5735 C14.4342,16.9614 14.0139,17.2665 13.6737,17.0604 L8.7669,14.1012 L3.8601,17.0604 C3.519,17.2656 3.0996,16.9605 3.1896,16.5735 L4.4874,10.9917 L0.1557,7.2387 C-0.1449,6.9786 0.0153,6.4845 0.4122,6.4503 L6.1218,5.9598 L8.352,0.6822 C8.5068,0.315 9.0261,0.315 9.1809,0.6822 Z" id="Path"></path>
                    </g>
                    <g id="star-copy" transform="translate(22.000254, 0.593200)" fill="#F7AD3E">
                        <path d="M9.1809,0.6822 L11.4111,5.9607 L17.1207,6.4512 C17.5167,6.4854 17.6778,6.9795 17.3772,7.2396 L13.0464,10.9917 L14.3442,16.5735 C14.4342,16.9614 14.0139,17.2665 13.6737,17.0604 L8.7669,14.1012 L3.8601,17.0604 C3.519,17.2656 3.0996,16.9605 3.1896,16.5735 L4.4874,10.9917 L0.1557,7.2387 C-0.1449,6.9786 0.0153,6.4845 0.4122,6.4503 L6.1218,5.9598 L8.352,0.6822 C8.5068,0.315 9.0261,0.315 9.1809,0.6822 Z" id="Path"></path>
                    </g>
                    <g id="star-copy-2" transform="translate(45.000254, 0.593200)" fill="#F7AD3E">
                        <path d="M9.1809,0.6822 L11.4111,5.9607 L17.1207,6.4512 C17.5167,6.4854 17.6778,6.9795 17.3772,7.2396 L13.0464,10.9917 L14.3442,16.5735 C14.4342,16.9614 14.0139,17.2665 13.6737,17.0604 L8.7669,14.1012 L3.8601,17.0604 C3.519,17.2656 3.0996,16.9605 3.1896,16.5735 L4.4874,10.9917 L0.1557,7.2387 C-0.1449,6.9786 0.0153,6.4845 0.4122,6.4503 L6.1218,5.9598 L8.352,0.6822 C8.5068,0.315 9.0261,0.315 9.1809,0.6822 Z" id="Path"></path>
                    </g>
                    <g id="star-copy-3" transform="translate(67.000254, 0.593200)" fill="#F7AD3E">
                        <path d="M9.1809,0.6822 L11.4111,5.9607 L17.1207,6.4512 C17.5167,6.4854 17.6778,6.9795 17.3772,7.2396 L13.0464,10.9917 L14.3442,16.5735 C14.4342,16.9614 14.0139,17.2665 13.6737,17.0604 L8.7669,14.1012 L3.8601,17.0604 C3.519,17.2656 3.0996,16.9605 3.1896,16.5735 L4.4874,10.9917 L0.1557,7.2387 C-0.1449,6.9786 0.0153,6.4845 0.4122,6.4503 L6.1218,5.9598 L8.352,0.6822 C8.5068,0.315 9.0261,0.315 9.1809,0.6822 Z" id="Path"></path>
                    </g>
                    <path d="M98.1811535,1.2754 L100.411354,6.5539 L106.120954,7.0444 C106.516954,7.0786 106.678054,7.5727 106.377454,7.8328 L102.046654,11.5849 L103.344454,17.1667 C103.434454,17.5546 103.014154,17.8597 102.673954,17.6536 L97.7671535,14.6944 L92.8603535,17.6536 C92.5192535,17.8588 92.0998535,17.5537 92.1898535,17.1667 L93.4876535,11.5849 L89.1559535,7.8319 C88.8553535,7.5718 89.0155535,7.0777 89.4124535,7.0435 L95.1220535,6.553 L97.3522535,1.2754 C97.5070535,0.9082 98.0263535,0.9082 98.1811535,1.2754 Z" id="Path" stroke="#F7AD3E"></path>
                </g>
                <g id="star-copy-4" transform="translate(86.000000, 0.000000)"></g>
            </g>
        </g>
    </g>
</svg>